<svg viewBox="0 0 1132 804" xmlns:xlink="http://www.w3.org/1999/xlink" height="804" xmlns:ev="http://www.w3.org/2001/xml-events" width="1132" xmlns="http://www.w3.org/2000/svg"><defs/><g transform="translate(5.5,5.5)" id="page1"><rect fill="#ffffff" height="794" width="1123" x="0" y="0"/><g transform="translate(448.897638,166.299213)" id="shape1"><path d="M100.0,60.0L100.0,.0L.0,.0L.0,60.0L100.0,60.0z" fill-rule="nonzero" fill="#ffffff"/><path d="M100.0,60.0L100.0,.0L.0,.0L.0,60.0L100.0,60.0zM7.5,52.5L92.5,52.5L92.5,7.5L7.5,7.5L7.5,52.5z" fill="none" stroke-width="1" stroke="#101843"/><text style="fill:#191919;font-family:Arial,PingFang SC,Mircrosoft YaHei,Arial;font-size:16px" xml:space="preserve"><tspan textLength="19.6" x="40.2" y="37.0">X0</tspan></text></g><g transform="translate(448.897638,306.377953)" id="shape2"><path d="M100.0,60.0L100.0,.0L.0,.0L.0,60.0L100.0,60.0z" fill-rule="nonzero" fill="#ffffff" stroke-width="1" stroke="#101843"/><text style="fill:#191919;font-family:Arial,PingFang SC,Mircrosoft YaHei,Arial;font-size:16px" xml:space="preserve"><tspan textLength="19.6" x="40.2" y="36.5">X1</tspan></text></g><g transform="translate(448.897638,430.866142)" id="shape3"><path d="M100.0,60.0L100.0,.0L.0,.0L.0,60.0L100.0,60.0z" fill-rule="nonzero" fill="#ffffff" stroke-width="1" stroke="#101843"/><text style="fill:#191919;font-family:Arial,PingFang SC,Mircrosoft YaHei,Arial;font-size:16px" xml:space="preserve"><tspan textLength="19.6" x="40.2" y="36.5">X2</tspan></text></g><g transform="translate(498.897638,226.299213)" id="shape4"><path d="M.0,.0L.0,80.1" fill="none" stroke-width="1" stroke="#191919"/><rect fill="#ffffff" height="19.0" width="116.4" x="8.7" y="28.0"/><rect fill="#ffffff" height="19.0" width="41.8" x="125.2" y="28.0"/><rect fill="#ffffff" height="19.0" width="5.3" x="166.9" y="28.0"/><text style="fill:#191919;font-family:Arial,PingFang SC,Mircrosoft YaHei,Arial;font-size:16px" xml:space="preserve"><tspan textLength="116.4" x="8.7" y="44.0">M1*M2*a0*b0 x(</tspan><tspan textLength="41.8" style="text-decoration:line-through" x="125.2">a1*b1</tspan><tspan textLength="5.3" x="166.9">)</tspan></text></g><path d="M.0,.0L18.0,.0" fill="none" stroke-width="1" transform="translate(548.897638,336.377953)" stroke="#191919" id="shape5"/><g transform="translate(529.133858,322.877953)" id="shape6"><text style="fill:#191919;font-family:Arial,PingFang SC,Mircrosoft YaHei,Arial;font-size:16px" xml:space="preserve"><tspan textLength="20.0" x="50.0" y="20.0">A+</tspan></text></g><path d="M.0,.0L.0,64.5" fill="none" stroke-width="1" transform="translate(498.897638,366.377953)" stroke="#191919" id="shape7"/><g transform="translate(514.015748,383.350500)" id="shape8"><text style="fill:#191919;font-family:Arial,PingFang SC,Mircrosoft YaHei,Arial;font-size:16px" xml:space="preserve"><tspan textLength="62.2" x="5.3" y="20.0">a1 * (b0*</tspan><tspan textLength="41.8" style="text-decoration:line-through" x="67.5">a0*b1</tspan><tspan textLength="5.3" x="109.3">)</tspan></text></g><path d="M.0,.0L17.9,.0" fill="none" stroke-width="1" transform="translate(549.000000,460.866142)" stroke="#191919" id="shape9"/><g transform="translate(529.133858,447.366142)" id="shape10"><text style="fill:#191919;font-family:Arial,PingFang SC,Mircrosoft YaHei,Arial;font-size:16px" xml:space="preserve"><tspan textLength="20.0" x="50.0" y="20.0">B+</tspan></text></g><g transform="translate(448.897638,537.165354)" id="shape11"><path d="M100.0,60.0L100.0,.0L.0,.0L.0,60.0L100.0,60.0z" fill-rule="nonzero" fill="#ffffff" stroke-width="1" stroke="#101843"/><text style="fill:#191919;font-family:Arial,PingFang SC,Mircrosoft YaHei,Arial;font-size:16px" xml:space="preserve"><tspan textLength="19.6" x="40.2" y="36.5">X3</tspan></text></g><g transform="translate(498.897638,490.866142)" id="shape12"><path d="M.0,.0L.0,46.3" fill="none" stroke-width="1" stroke="#191919"/><rect fill="#ffffff" height="19.0" width="53.3" x="8.3" y="11.6"/><rect fill="#ffffff" height="19.0" width="41.8" x="61.6" y="11.6"/><rect fill="#ffffff" height="19.0" width="5.3" x="103.4" y="11.6"/><text style="fill:#191919;font-family:Arial,PingFang SC,Mircrosoft YaHei,Arial;font-size:16px" xml:space="preserve"><tspan textLength="53.3" x="8.3" y="27.6">b1*a1*(</tspan><tspan textLength="41.8" style="text-decoration:line-through" x="61.6">a0*b0</tspan><tspan textLength="5.3" x="103.4">)</tspan></text></g><path d="M.0,.0L17.9,.0" fill="none" stroke-width="1" transform="translate(549.000000,567.165354)" stroke="#191919" id="shape13"/><g transform="translate(526.731698,553.718425)" id="shape14"><text style="fill:#191919;font-family:Arial,PingFang SC,Mircrosoft YaHei,Arial;font-size:16px" xml:space="preserve"><tspan textLength="16.0" x="52.0" y="20.0">B-</tspan></text></g><g transform="translate(448.897638,634.960630)" id="shape15"><path d="M100.0,60.0L100.0,.0L.0,.0L.0,60.0L100.0,60.0z" fill-rule="nonzero" fill="#ffffff" stroke-width="1" stroke="#101843"/><text style="fill:#191919;font-family:Arial,PingFang SC,Mircrosoft YaHei,Arial;font-size:16px" xml:space="preserve"><tspan textLength="19.6" x="40.2" y="36.5">X4</tspan></text></g><g transform="translate(498.897638,597.165354)" id="shape16"><path d="M.0,.0L-0.0,37.8" fill="none" stroke-width="1" stroke="#191919"/><rect fill="#ffffff" height="19.0" width="53.3" x="8.4" y="9.1"/><rect fill="#ffffff" height="19.0" width="41.8" x="61.8" y="9.1"/><text style="fill:#191919;font-family:Arial,PingFang SC,Mircrosoft YaHei,Arial;font-size:16px" xml:space="preserve"><tspan textLength="53.3" x="8.4" y="25.1">a1*(b0*</tspan><tspan textLength="41.8" style="text-decoration:line-through" x="61.8">b1*a0</tspan></text></g><path d="M.0,.0L18.0,.0" fill="none" stroke-width="1" transform="translate(548.897638,664.960630)" stroke="#191919" id="shape17"/><g transform="translate(528.618491,651.831632)" id="shape18"><text style="fill:#191919;font-family:Arial,PingFang SC,Mircrosoft YaHei,Arial;font-size:16px" xml:space="preserve"><tspan textLength="16.0" x="52.0" y="20.0">A-</tspan></text></g><path d="M.0,.0L.0,27.0L-78.9,27.0L-78.9,-557.0L.0,-557.0L.0,-528.7" fill="none" stroke-width="1" transform="translate(498.897638,694.960630)" stroke="#307f45" id="shape19"/></g></svg>