<svg viewBox="0 0 1132 804" xmlns:xlink="http://www.w3.org/1999/xlink" height="804" xmlns:ev="http://www.w3.org/2001/xml-events" width="1132" xmlns="http://www.w3.org/2000/svg"><defs/><g transform="translate(5.5,5.5)" id="page1"><rect fill="#ffffff" height="794" width="1123" x="0" y="0"/><g transform="translate(630.452756,253.917429)" id="shape1"><path d="M100.0,60.0L100.0,.0L.0,.0L.0,60.0L100.0,60.0z" fill-rule="nonzero" fill="#ffffff"/><path d="M100.0,60.0L100.0,.0L.0,.0L.0,60.0L100.0,60.0zM7.5,52.5L92.5,52.5L92.5,7.5L7.5,7.5L7.5,52.5z" fill="none" stroke-width="1" stroke="#101843"/><text style="fill:#191919;font-family:Arial,PingFang SC,Mircrosoft YaHei,Arial;font-size:16px" xml:space="preserve"><tspan textLength="19.6" x="40.2" y="37.0">X0</tspan></text></g><g transform="translate(630.452756,375.098531)" id="shape2"><path d="M100.0,60.0L100.0,.0L.0,.0L.0,60.0L100.0,60.0z" fill-rule="nonzero" fill="#ffffff" stroke-width="1" stroke="#101843"/><text style="fill:#191919;font-family:Arial,PingFang SC,Mircrosoft YaHei,Arial;font-size:16px" xml:space="preserve"><tspan textLength="19.6" x="40.2" y="36.5">X1</tspan></text></g><g transform="translate(730.452756,391.598531)" id="shape3"><text style="fill:#191919;font-family:Arial,PingFang SC,Mircrosoft YaHei,Arial;font-size:16px" xml:space="preserve"><tspan textLength="132.5" x="31.1" y="20.0">LA PRENSA BAJA</tspan></text></g><g transform="translate(680.452756,313.917429)" id="shape4"><path d="M.0,.0L.0,61.2" fill="none" stroke-width="1" stroke="#191919"/><rect fill="#ffffff" height="19.0" width="68.4" x="8.3" y="18.8"/><text style="fill:#191919;font-family:Arial,PingFang SC,Mircrosoft YaHei,Arial;font-size:16px" xml:space="preserve"><tspan textLength="68.4" x="8.3" y="34.8">a*Marcha</tspan></text></g><g transform="translate(630.452756,480.689083)" id="shape5"><path d="M100.0,60.0L100.0,.0L.0,.0L.0,60.0L100.0,60.0z" fill-rule="nonzero" fill="#ffffff" stroke-width="1" stroke="#101843"/><text style="fill:#191919;font-family:Arial,PingFang SC,Mircrosoft YaHei,Arial;font-size:16px" xml:space="preserve"><tspan textLength="19.6" x="40.2" y="36.5">X2</tspan></text></g><g transform="translate(680.452756,435.098531)" id="shape6"><path d="M.0,.0L.0,45.6" fill="none" stroke-width="1" stroke="#191919"/><rect fill="#ffffff" height="19.0" width="13.3" x="8.3" y="13.6"/><text style="fill:#191919;font-family:Arial,PingFang SC,Mircrosoft YaHei,Arial;font-size:16px" xml:space="preserve"><tspan textLength="13.3" x="8.3" y="29.6">b </tspan></text></g><g transform="translate(730.452756,497.189083)" id="shape7"><text style="fill:#191919;font-family:Arial,PingFang SC,Mircrosoft YaHei,Arial;font-size:16px" xml:space="preserve"><tspan textLength="136.0" x="29.3" y="20.0">LA PRENSA SUBE</tspan></text></g><g transform="translate(680.452756,540.689083)" id="shape8"><path d="M.0,.0L.0,27.7L-78.6,27.7L-78.6,-315.3L.0,-315.3L.0,-286.8" fill="none" stroke-width="1" stroke="#191919"/><rect fill="#ffffff" height="19.0" width="8.9" x="8.6" y="14.0"/><text style="fill:#191919;font-family:Arial,PingFang SC,Mircrosoft YaHei,Arial;font-size:16px" xml:space="preserve"><tspan textLength="8.9" x="8.6" y="30.0">a</tspan></text></g><path d="M189.0,70.6L189.0,.0L.0,.0L.0,70.6L189.0,70.6z" fill-rule="nonzero" fill="#ffffff" stroke-width="1" transform="translate(313.700787,453.543307)" stroke="#101843" id="shape9"/><path d="M37.8,30.2L37.8,.0L.0,.0L.0,30.2L37.8,30.2z" fill-rule="nonzero" fill="#ffffff" stroke-width="1" transform="translate(386.377953,423.307087)" stroke="#101843" id="shape10"/><path d="M100.0,105.8L100.0,.0L.0,.0L.0,105.8L100.0,105.8z" fill-rule="nonzero" fill="#ffffff" stroke-width="1" transform="matrix(0.000000,-1.000000,1.000000,0.000000,355.275591,397.716535)" stroke="#101843" id="shape11"/><g transform="translate(461.102362,347.716535)" id="shape12"><path d="M.0,.0L15.1,.0L15.1,39.4" fill="none" stroke-width="1" stroke="#191919"/><path d="M18.1,39.4L15.1,45.4L12.1,39.4L18.1,39.4" stroke-linecap="round" fill="#191919" stroke-width="1" stroke="#191919"/></g><g transform="translate(355.275591,347.716535)" id="shape13"><path d="M.0,.0L-14.3,.0L-14.3,-39.4" fill="none" stroke-width="1" stroke="#191919"/><path d="M-17.3,-39.4L-14.3,-45.4L-11.3,-39.4L-17.3,-39.4" stroke-linecap="round" fill="#191919" stroke-width="1" stroke="#191919"/></g></g></svg>