<svg xmlns:xlink="http://www.w3.org/1999/xlink" xmlns:ev="http://www.w3.org/2001/xml-events" xmlns="http://www.w3.org/2000/svg" height="804" viewBox="0 0 1132 804" width="1132"><defs/><g transform="translate(5.5,5.5)" id="page1"><rect x="0" y="0" height="794" width="1123" fill="#ffffff"/><g transform="translate(188.976378,75.590551)" id="shape1"><path d="M100.0,60.0L100.0,.0L.0,.0L.0,60.0L100.0,60.0z" fill-rule="nonzero" fill="#ffffff"/><path stroke="#101843" d="M100.0,60.0L100.0,.0L.0,.0L.0,60.0L100.0,60.0zM10.0,50.0L90.0,50.0L90.0,10.0L10.0,10.0L10.0,50.0z" stroke-width="1" fill="none"/><text xml:space="preserve" style="fill:#191919;font-family:Arial,PingFang SC,Mircrosoft YaHei,Arial;font-size:16px"><tspan x="40.2" y="36.5" textLength="19.6">X0</tspan></text></g><g transform="translate(188.976378,192.283465)" id="shape2"><path stroke="#101843" d="M100.0,60.0L100.0,.0L.0,.0L.0,60.0L100.0,60.0z" stroke-width="1" fill-rule="nonzero" fill="#ffffff"/><text xml:space="preserve" style="fill:#191919;font-family:Arial,PingFang SC,Mircrosoft YaHei,Arial;font-size:16px"><tspan x="40.2" y="36.5" textLength="19.6">X1</tspan></text></g><path transform="translate(238.976378,135.590551)" stroke="#191919" d="M.0,.0L.0,56.7" id="shape3" stroke-width="1" fill="none"/><path transform="translate(238.976378,163.937008)" stroke="#191919" d="M.0,.0L26.0,1.0L61.4,1.0" id="shape4" stroke-width="1" fill="none"/><g transform="translate(277.275591,150.437008)" id="shape5"><text xml:space="preserve" style="fill:#191919;font-family:Arial,PingFang SC,Mircrosoft YaHei,Arial;font-size:16px"><tspan x="26.9" y="20.0" textLength="147.5">MARCHA*A0*B0*C0</tspan></text></g><path transform="translate(288.976378,222.283465)" stroke="#191919" d="M.0,.0L27.6,.0" id="shape6" stroke-width="1" fill="none"/><g transform="translate(277.275591,208.783465)" id="shape7"><text xml:space="preserve" style="fill:#191919;font-family:Arial,PingFang SC,Mircrosoft YaHei,Arial;font-size:16px"><tspan x="50.2" y="20.0" textLength="19.6">A1</tspan></text></g><g transform="translate(188.976378,305.669291)" id="shape8"><path stroke="#101843" d="M100.0,60.0L100.0,.0L.0,.0L.0,60.0L100.0,60.0z" stroke-width="1" fill-rule="nonzero" fill="#ffffff"/><text xml:space="preserve" style="fill:#191919;font-family:Arial,PingFang SC,Mircrosoft YaHei,Arial;font-size:16px"><tspan x="40.2" y="36.5" textLength="19.6">X2</tspan></text></g><path transform="translate(238.976378,252.283465)" stroke="#191919" d="M.0,.0L.0,53.4" id="shape9" stroke-width="1" fill="none"/><path transform="translate(238.976378,305.669291)" stroke="#191919" d="M.0,.0L.0,-27.6L63.4,-27.6" id="shape10" stroke-width="1" fill="none"/><g transform="translate(271.259843,266.771654)" id="shape11"><text xml:space="preserve" style="fill:#191919;font-family:Arial,PingFang SC,Mircrosoft YaHei,Arial;font-size:16px"><tspan x="37.3" y="20.0" textLength="45.3">A1*B0</tspan></text></g><path transform="translate(288.976378,335.669291)" stroke="#191919" d="M.0,.0L27.6,.0" id="shape12" stroke-width="1" fill="none"/><g transform="translate(271.259843,322.169291)" id="shape13"><text xml:space="preserve" style="fill:#191919;font-family:Arial,PingFang SC,Mircrosoft YaHei,Arial;font-size:16px"><tspan x="50.0" y="20.0" textLength="20.0">B+</tspan></text></g><g transform="translate(188.976378,419.055118)" id="shape14"><path stroke="#101843" d="M100.0,60.0L100.0,.0L.0,.0L.0,60.0L100.0,60.0z" stroke-width="1" fill-rule="nonzero" fill="#ffffff"/><text xml:space="preserve" style="fill:#191919;font-family:Arial,PingFang SC,Mircrosoft YaHei,Arial;font-size:16px"><tspan x="40.2" y="36.5" textLength="19.6">X3</tspan></text></g><g transform="translate(238.976378,365.669291)" id="shape15"><path stroke="#191919" d="M.0,.0L-0.0,53.4" stroke-width="1" fill="none"/><rect x="8.7" y="14.7" height="19.0" width="87.7" fill="#ffffff"/><text xml:space="preserve" style="fill:#191919;font-family:Arial,PingFang SC,Mircrosoft YaHei,Arial;font-size:16px"><tspan x="8.7" y="30.7" textLength="87.7">B0*TON#5S</tspan></text></g><path transform="translate(288.976378,449.055118)" stroke="#191919" d="M.0,.0L32.3,.0" id="shape16" stroke-width="1" fill="none"/><g transform="translate(277.275591,435.555118)" id="shape17"><text xml:space="preserve" style="fill:#191919;font-family:Arial,PingFang SC,Mircrosoft YaHei,Arial;font-size:16px"><tspan x="49.5" y="20.0" textLength="20.9">C+</tspan></text></g><g transform="translate(188.976378,536.929134)" id="shape18"><path stroke="#101843" d="M100.0,60.0L100.0,.0L.0,.0L.0,60.0L100.0,60.0z" stroke-width="1" fill-rule="nonzero" fill="#ffffff"/><text xml:space="preserve" style="fill:#191919;font-family:Arial,PingFang SC,Mircrosoft YaHei,Arial;font-size:16px"><tspan x="40.2" y="36.5" textLength="19.6">X4</tspan></text></g><path transform="translate(238.976378,479.055118)" stroke="#191919" d="M.0,.0L.0,57.9" id="shape19" stroke-width="1" fill="none"/><path transform="translate(288.976378,566.929134)" stroke="#191919" d="M.0,.0L32.3,.0" id="shape20" stroke-width="1" fill="none"/><g transform="translate(277.275591,553.429134)" id="shape21"><text xml:space="preserve" style="fill:#191919;font-family:Arial,PingFang SC,Mircrosoft YaHei,Arial;font-size:16px"><tspan x="51.6" y="20.0" textLength="16.9">C-</tspan></text></g><g transform="translate(370.275591,536.929134)" id="shape22"><path stroke="#101843" d="M100.0,60.0L100.0,.0L.0,.0L.0,60.0L100.0,60.0z" stroke-width="1" fill-rule="nonzero" fill="#ffffff"/><text xml:space="preserve" style="fill:#191919;font-family:Arial,PingFang SC,Mircrosoft YaHei,Arial;font-size:16px"><tspan x="40.2" y="36.5" textLength="19.6">X5</tspan></text></g><g transform="translate(201.259843,486.304626)" id="shape23"><text xml:space="preserve" style="fill:#191919;font-family:Arial,PingFang SC,Mircrosoft YaHei,Arial;font-size:16px"><tspan x="49.8" y="20.0" textLength="20.4">C1</tspan></text></g><path transform="translate(470.275591,566.929134)" stroke="#191919" d="M.0,.0L25.6,.0" id="shape24" stroke-width="1" fill="none"/><g transform="translate(454.606299,553.342520)" id="shape25"><text xml:space="preserve" style="fill:#191919;font-family:Arial,PingFang SC,Mircrosoft YaHei,Arial;font-size:16px"><tspan x="52.0" y="20.0" textLength="16.0">A-</tspan></text></g><path transform="translate(238.976378,479.055118)" stroke="#191919" d="M.0,.0L.0,31.2L181.3,31.2L181.3,57.9" id="shape26" stroke-width="1" fill="none"/><path transform="translate(238.976378,596.929134)" stroke="#191919" d="M.0,.0L.0,27.1L-79.0,27.1L-79.0,-549.9L.0,-549.9L.0,-521.3" id="shape27" stroke-width="1" fill="none"/><path transform="translate(420.275591,596.929134)" stroke="#191919" d="M.0,.0L.0,27.1L-181.3,27.1" id="shape28" stroke-width="1" fill="none"/><g transform="translate(178.976378,629.019685)" id="shape29"><text xml:space="preserve" style="fill:#191919;font-family:Arial,PingFang SC,Mircrosoft YaHei,Arial;font-size:16px"><tspan x="37.3" y="20.0" textLength="45.3">A0*B0</tspan></text></g><g transform="translate(680.314961,75.590551)" id="shape30"><path stroke="#323232" d="M.0,.0L75.6,.0L75.6,75.6L.0,75.6L.0,.0z" stroke-width="1" fill-rule="nonzero" fill="#ffffff"/><text xml:space="preserve" style="fill:#191919;font-family:Arial,PingFang SC,Mircrosoft YaHei,Arial;font-size:16px"><tspan x="28.0" y="44.5" textLength="19.6">X0</tspan></text></g><g transform="translate(519.685039,139.850394)" id="shape31"><path stroke="#191919" d="M.0,.0L154.3,-0.0" stroke-width="1" fill="none"/><path stroke-linecap="round" stroke="#191919" d="M154.3,-3.0L160.3,-0.0L154.3,3.0L154.3,-3.0" stroke-width="1" fill="#191919"/><rect x="6.4" y="-9.5" height="19.0" width="20.4" fill="#ffffff"/><text xml:space="preserve" style="fill:#191919;font-family:Arial,PingFang SC,Mircrosoft YaHei,Arial;font-size:16px"><tspan x="6.4" y="6.5" textLength="20.4">FS</tspan></text></g><g transform="translate(524.409449,188.976378)" id="shape32"><path stroke="#191919" d="M.0,.0L132.9,.0L132.9,-43.1" stroke-width="1" fill="none"/><path stroke-linecap="round" stroke="#191919" d="M129.9,-43.1L132.9,-49.1L135.9,-43.1L129.9,-43.1" stroke-width="1" fill="#191919"/><rect x="4.1" y="-9.5" height="19.0" width="19.6" fill="#ffffff"/><text xml:space="preserve" style="fill:#191919;font-family:Arial,PingFang SC,Mircrosoft YaHei,Arial;font-size:16px"><tspan x="4.1" y="6.5" textLength="19.6">A0</tspan></text><rect x="32.1" y="-9.5" height="19.0" width="19.6" fill="#ffffff"/><text xml:space="preserve" style="fill:#191919;font-family:Arial,PingFang SC,Mircrosoft YaHei,Arial;font-size:16px"><tspan x="32.1" y="6.5" textLength="19.6">B0</tspan></text></g><g transform="translate(529.133858,94.488189)" id="shape33"><path stroke="#191919" d="M.0,.0L145.2,.0" stroke-width="1" fill="none"/><path stroke-linecap="round" stroke="#191919" d="M145.2,-3.0L151.2,.0L145.2,3.0L145.2,-3.0" stroke-width="1" fill="#191919"/><rect x="9.3" y="-9.5" height="19.0" width="19.6" fill="#ffffff"/><text xml:space="preserve" style="fill:#191919;font-family:Arial,PingFang SC,Mircrosoft YaHei,Arial;font-size:16px"><tspan x="9.3" y="6.5" textLength="19.6">X1</tspan></text></g><g transform="translate(680.314912,208.783465)" id="shape34"><path stroke="#323232" d="M.0,.0L75.6,.0L75.6,75.6L.0,75.6L.0,.0z" stroke-width="1" fill-rule="nonzero" fill="#ffffff"/><text xml:space="preserve" style="fill:#191919;font-family:Arial,PingFang SC,Mircrosoft YaHei,Arial;font-size:16px"><tspan x="28.0" y="44.5" textLength="19.6">X1</tspan></text></g><g transform="translate(515.409214,276.813339)" id="shape35"><path stroke="#191919" d="M.0,.0L158.6,.0" stroke-width="1" fill="none"/><path stroke-linecap="round" stroke="#191919" d="M158.6,-3.0L164.6,.0L158.6,3.0L158.6,-3.0" stroke-width="1" fill="#191919"/><rect x="2.9" y="-9.5" height="19.0" width="19.6" fill="#ffffff"/><text xml:space="preserve" style="fill:#191919;font-family:Arial,PingFang SC,Mircrosoft YaHei,Arial;font-size:16px"><tspan x="2.9" y="6.5" textLength="19.6">A0</tspan></text><rect x="30.0" y="-9.5" height="19.0" width="19.6" fill="#ffffff"/><text xml:space="preserve" style="fill:#191919;font-family:Arial,PingFang SC,Mircrosoft YaHei,Arial;font-size:16px"><tspan x="30.0" y="6.5" textLength="19.6">B0</tspan></text><rect x="59.4" y="-9.5" height="19.0" width="20.4" fill="#ffffff"/><text xml:space="preserve" style="fill:#191919;font-family:Arial,PingFang SC,Mircrosoft YaHei,Arial;font-size:16px"><tspan x="59.4" y="6.5" textLength="20.4">C0</tspan></text><rect x="90.9" y="-9.5" height="19.0" width="53.3" fill="#ffffff"/><text xml:space="preserve" style="fill:#191919;font-family:Arial,PingFang SC,Mircrosoft YaHei,Arial;font-size:16px"><tspan x="90.9" y="6.5" textLength="53.3">Marcha</tspan></text></g><g transform="translate(529.134212,227.680965)" id="shape36"><path stroke="#191919" d="M.0,.0L145.2,.0" stroke-width="1" fill="none"/><path stroke-linecap="round" stroke="#191919" d="M145.2,-3.0L151.2,.0L145.2,3.0L145.2,-3.0" stroke-width="1" fill="#191919"/><rect x="9.3" y="-9.5" height="19.0" width="19.6" fill="#ffffff"/><text xml:space="preserve" style="fill:#191919;font-family:Arial,PingFang SC,Mircrosoft YaHei,Arial;font-size:16px"><tspan x="9.3" y="6.5" textLength="19.6">X2</tspan></text></g><g transform="translate(680.314912,349.169818)" id="shape37"><path stroke="#323232" d="M.0,.0L75.6,.0L75.6,75.6L.0,75.6L.0,.0z" stroke-width="1" fill-rule="nonzero" fill="#ffffff"/><text xml:space="preserve" style="fill:#191919;font-family:Arial,PingFang SC,Mircrosoft YaHei,Arial;font-size:16px"><tspan x="28.0" y="44.5" textLength="19.6">X2</tspan></text></g><g transform="translate(533.858268,414.874679)" id="shape38"><path stroke="#191919" d="M.0,.0L140.1,.0" stroke-width="1" fill="none"/><path stroke-linecap="round" stroke="#191919" d="M140.1,-3.0L146.1,.0L140.1,3.0L140.1,-3.0" stroke-width="1" fill="#191919"/><rect x="1.6" y="-9.5" height="19.0" width="19.6" fill="#ffffff"/><text xml:space="preserve" style="fill:#191919;font-family:Arial,PingFang SC,Mircrosoft YaHei,Arial;font-size:16px"><tspan x="1.6" y="6.5" textLength="19.6">A1</tspan></text><rect x="51.0" y="-9.5" height="19.0" width="19.6" fill="#ffffff"/><text xml:space="preserve" style="fill:#191919;font-family:Arial,PingFang SC,Mircrosoft YaHei,Arial;font-size:16px"><tspan x="51.0" y="6.5" textLength="19.6">B0</tspan></text></g><g transform="translate(529.134212,368.067118)" id="shape39"><path stroke="#191919" d="M.0,.0L145.2,.0" stroke-width="1" fill="none"/><path stroke-linecap="round" stroke="#191919" d="M145.2,-3.0L151.2,.0L145.2,3.0L145.2,-3.0" stroke-width="1" fill="#191919"/><rect x="9.3" y="-9.5" height="19.0" width="19.6" fill="#ffffff"/><text xml:space="preserve" style="fill:#191919;font-family:Arial,PingFang SC,Mircrosoft YaHei,Arial;font-size:16px"><tspan x="9.3" y="6.5" textLength="19.6">X3</tspan></text></g><g transform="translate(680.314912,477.751920)" id="shape40"><path stroke="#323232" d="M.0,.0L75.6,.0L75.6,75.6L.0,75.6L.0,.0z" stroke-width="1" fill-rule="nonzero" fill="#ffffff"/><text xml:space="preserve" style="fill:#191919;font-family:Arial,PingFang SC,Mircrosoft YaHei,Arial;font-size:16px"><tspan x="28.0" y="44.5" textLength="19.6">X3</tspan></text></g><g transform="translate(529.929346,543.456781)" id="shape41"><path stroke="#191919" d="M.0,.0L144.4,.0" stroke-width="1" fill="none"/><path stroke-linecap="round" stroke="#191919" d="M144.4,-3.0L150.4,.0L144.4,3.0L144.4,-3.0" stroke-width="1" fill="#191919"/><rect x="16.5" y="-9.5" height="19.0" width="19.6" fill="#ffffff"/><text xml:space="preserve" style="fill:#191919;font-family:Arial,PingFang SC,Mircrosoft YaHei,Arial;font-size:16px"><tspan x="16.5" y="6.5" textLength="19.6">B0</tspan></text><rect x="65.9" y="-9.5" height="19.0" width="16.9" fill="#ffffff"/><text xml:space="preserve" style="fill:#191919;font-family:Arial,PingFang SC,Mircrosoft YaHei,Arial;font-size:16px"><tspan x="65.9" y="6.5" textLength="16.9">5s</tspan></text></g><g transform="translate(529.134212,496.649220)" id="shape42"><path stroke="#191919" d="M.0,.0L145.2,.0" stroke-width="1" fill="none"/><path stroke-linecap="round" stroke="#191919" d="M145.2,-3.0L151.2,.0L145.2,3.0L145.2,-3.0" stroke-width="1" fill="#191919"/><rect x="9.3" y="-9.5" height="19.0" width="19.6" fill="#ffffff"/><text xml:space="preserve" style="fill:#191919;font-family:Arial,PingFang SC,Mircrosoft YaHei,Arial;font-size:16px"><tspan x="9.3" y="6.5" textLength="19.6">X4</tspan></text></g><g transform="translate(954.330660,75.590502)" id="shape43"><path stroke="#323232" d="M.0,.0L75.6,.0L75.6,75.6L.0,75.6L.0,.0z" stroke-width="1" fill-rule="nonzero" fill="#ffffff"/><text xml:space="preserve" style="fill:#191919;font-family:Arial,PingFang SC,Mircrosoft YaHei,Arial;font-size:16px"><tspan x="28.0" y="44.5" textLength="19.6">X4</tspan></text></g><g transform="translate(803.944960,141.295802)" id="shape44"><path stroke="#191919" d="M.0,.0L144.4,.0" stroke-width="1" fill="none"/><path stroke-linecap="round" stroke="#191919" d="M144.4,-3.0L150.4,.0L144.4,3.0L144.4,-3.0" stroke-width="1" fill="#191919"/><rect x="16.1" y="-9.5" height="19.0" width="20.4" fill="#ffffff"/><text xml:space="preserve" style="fill:#191919;font-family:Arial,PingFang SC,Mircrosoft YaHei,Arial;font-size:16px"><tspan x="16.1" y="6.5" textLength="20.4">C1</tspan></text></g><g transform="translate(803.149960,94.487802)" id="shape45"><path stroke="#191919" d="M.0,.0L145.2,.0" stroke-width="1" fill="none"/><path stroke-linecap="round" stroke="#191919" d="M145.2,-3.0L151.2,.0L145.2,3.0L145.2,-3.0" stroke-width="1" fill="#191919"/><rect x="9.3" y="-9.5" height="19.0" width="19.6" fill="#ffffff"/><text xml:space="preserve" style="fill:#191919;font-family:Arial,PingFang SC,Mircrosoft YaHei,Arial;font-size:16px"><tspan x="9.3" y="6.5" textLength="19.6">X0</tspan></text></g><g transform="translate(963.779479,208.783465)" id="shape46"><path stroke="#323232" d="M.0,.0L75.6,.0L75.6,75.6L.0,75.6L.0,.0z" stroke-width="1" fill-rule="nonzero" fill="#ffffff"/><text xml:space="preserve" style="fill:#191919;font-family:Arial,PingFang SC,Mircrosoft YaHei,Arial;font-size:16px"><tspan x="28.0" y="44.5" textLength="19.6">X5</tspan></text></g><g transform="translate(813.393779,274.488765)" id="shape47"><path stroke="#191919" d="M.0,.0L144.4,.0" stroke-width="1" fill="none"/><path stroke-linecap="round" stroke="#191919" d="M144.4,-3.0L150.4,.0L144.4,3.0L144.4,-3.0" stroke-width="1" fill="#191919"/><rect x="16.1" y="-9.5" height="19.0" width="20.4" fill="#ffffff"/><text xml:space="preserve" style="fill:#191919;font-family:Arial,PingFang SC,Mircrosoft YaHei,Arial;font-size:16px"><tspan x="16.1" y="6.5" textLength="20.4">C1</tspan></text></g><g transform="translate(812.598779,227.680565)" id="shape48"><path stroke="#191919" d="M.0,.0L145.2,.0" stroke-width="1" fill="none"/><path stroke-linecap="round" stroke="#191919" d="M145.2,-3.0L151.2,.0L145.2,3.0L145.2,-3.0" stroke-width="1" fill="#191919"/><rect x="9.3" y="-9.5" height="19.0" width="19.6" fill="#ffffff"/><text xml:space="preserve" style="fill:#191919;font-family:Arial,PingFang SC,Mircrosoft YaHei,Arial;font-size:16px"><tspan x="9.3" y="6.5" textLength="19.6">X0</tspan></text></g></g></svg>