<svg viewBox="0 0 1132 804" xmlns:xlink="http://www.w3.org/1999/xlink" height="804" xmlns:ev="http://www.w3.org/2001/xml-events" width="1132" xmlns="http://www.w3.org/2000/svg"><defs/><g transform="translate(5.5,5.5)" id="page1"><rect fill="#ffffff" height="794" width="1123" x="0" y="0"/><g transform="translate(384.645669,234.566929)" id="shape1"><path d="M100.0,60.0L100.0,.0L.0,.0L.0,60.0L100.0,60.0z" fill-rule="nonzero" fill="#ffffff"/><path d="M100.0,60.0L100.0,.0L.0,.0L.0,60.0L100.0,60.0zM7.5,52.5L92.5,52.5L92.5,7.5L7.5,7.5L7.5,52.5z" fill="none" stroke-width="1" stroke="#101843"/><text style="fill:#191919;font-family:Arial,PingFang SC,Mircrosoft YaHei,Arial;font-size:16px" xml:space="preserve"><tspan textLength="19.6" x="40.2" y="37.0">X0</tspan></text></g><g transform="translate(384.645669,355.748031)" id="shape2"><path d="M100.0,60.0L100.0,.0L.0,.0L.0,60.0L100.0,60.0z" fill-rule="nonzero" fill="#ffffff" stroke-width="1" stroke="#101843"/><text style="fill:#191919;font-family:Arial,PingFang SC,Mircrosoft YaHei,Arial;font-size:16px" xml:space="preserve"><tspan textLength="19.6" x="40.2" y="36.5">X1</tspan></text></g><g transform="translate(484.645669,372.248031)" id="shape3"><text style="fill:#191919;font-family:Arial,PingFang SC,Mircrosoft YaHei,Arial;font-size:16px" xml:space="preserve"><tspan textLength="132.5" x="31.1" y="20.0">LA PRENSA BAJA</tspan></text></g><g transform="translate(434.645669,294.566929)" id="shape4"><path d="M.0,.0L.0,61.2" fill="none" stroke-width="1" stroke="#191919"/><rect fill="#ffffff" height="19.0" width="68.4" x="8.3" y="18.8"/><text style="fill:#191919;font-family:Arial,PingFang SC,Mircrosoft YaHei,Arial;font-size:16px" xml:space="preserve"><tspan textLength="68.4" x="8.3" y="34.8">a*Marcha</tspan></text></g><g transform="translate(384.645669,461.338583)" id="shape5"><path d="M100.0,60.0L100.0,.0L.0,.0L.0,60.0L100.0,60.0z" fill-rule="nonzero" fill="#ffffff" stroke-width="1" stroke="#101843"/><text style="fill:#191919;font-family:Arial,PingFang SC,Mircrosoft YaHei,Arial;font-size:16px" xml:space="preserve"><tspan textLength="19.6" x="40.2" y="36.5">X2</tspan></text></g><g transform="translate(434.645669,415.748031)" id="shape6"><path d="M.0,.0L.0,45.6" fill="none" stroke-width="1" stroke="#191919"/><rect fill="#ffffff" height="19.0" width="13.3" x="8.3" y="13.6"/><text style="fill:#191919;font-family:Arial,PingFang SC,Mircrosoft YaHei,Arial;font-size:16px" xml:space="preserve"><tspan textLength="13.3" x="8.3" y="29.6">b </tspan></text></g><g transform="translate(484.645669,477.838583)" id="shape7"><text style="fill:#191919;font-family:Arial,PingFang SC,Mircrosoft YaHei,Arial;font-size:16px" xml:space="preserve"><tspan textLength="136.0" x="29.3" y="20.0">LA PRENSA SUBE</tspan></text></g><g transform="translate(434.645669,521.338583)" id="shape8"><path d="M.0,.0L.0,27.7L-78.6,27.7L-78.6,-315.3L.0,-315.3L.0,-286.8" fill="none" stroke-width="1" stroke="#191919"/><rect fill="#ffffff" height="19.0" width="8.9" x="8.6" y="14.0"/><text style="fill:#191919;font-family:Arial,PingFang SC,Mircrosoft YaHei,Arial;font-size:16px" xml:space="preserve"><tspan textLength="8.9" x="8.6" y="30.0">a</tspan></text></g></g></svg>