<svg xmlns:xlink="http://www.w3.org/1999/xlink" xmlns:ev="http://www.w3.org/2001/xml-events" xmlns="http://www.w3.org/2000/svg" height="804" viewBox="0 0 1132 804" width="1132"><defs/><g transform="translate(5.5,5.5)" id="page1"><rect x="0" y="0" height="794" width="1123" fill="#ffffff"/><path transform="translate(50.826723,56.692913)" stroke="#323232" d="M.0,.0L342.4,.0L342.4,673.7L.0,673.7L.0,.0z" id="shape1" stroke-width="1" fill-rule="nonzero" fill="#ffffff"/><path transform="translate(538.582677,510.236220)" stroke="#323232" d="M.0,.0L396.9,.0L396.9,245.7L.0,245.7L.0,.0z" id="shape2" stroke-width="1" fill-rule="nonzero" fill="#ffffff"/><path transform="translate(404.984252,37.795276)" stroke="#323232" d="M.0,.0L680.3,.0L680.3,453.5L.0,453.5L.0,.0z" id="shape3" stroke-width="1" fill-rule="nonzero" fill="#ffffff"/><g transform="translate(109.464518,111.045827)" id="shape4"><path d="M100.0,60.0L100.0,.0L.0,.0L.0,60.0L100.0,60.0z" fill-rule="nonzero" fill="#ffffff"/><path stroke="#101843" d="M100.0,60.0L100.0,.0L.0,.0L.0,60.0L100.0,60.0zM10.0,50.0L90.0,50.0L90.0,10.0L10.0,10.0L10.0,50.0z" stroke-width="1" fill="none"/><text xml:space="preserve" style="fill:#191919;font-family:Arial,PingFang SC,Mircrosoft YaHei,Arial;font-size:16px"><tspan x="40.2" y="36.5" textLength="19.6">X0</tspan></text></g><g transform="translate(109.464518,227.738740)" id="shape5"><path stroke="#101843" d="M100.0,60.0L100.0,.0L.0,.0L.0,60.0L100.0,60.0z" stroke-width="1" fill-rule="nonzero" fill="#ffffff"/><text xml:space="preserve" style="fill:#191919;font-family:Arial,PingFang SC,Mircrosoft YaHei,Arial;font-size:16px"><tspan x="40.2" y="36.5" textLength="19.6">X1</tspan></text></g><path transform="translate(159.464518,171.045827)" stroke="#191919" d="M.0,.0L.0,56.7" id="shape6" stroke-width="1" fill="none"/><path transform="translate(159.464518,199.392283)" stroke="#191919" d="M.0,.0L26.0,1.0L61.4,1.0" id="shape7" stroke-width="1" fill="none"/><g transform="translate(197.763731,185.892283)" id="shape8"><text xml:space="preserve" style="fill:#191919;font-family:Arial,PingFang SC,Mircrosoft YaHei,Arial;font-size:16px"><tspan x="26.9" y="20.0" textLength="147.5">MARCHA*A0*B0*C0</tspan></text></g><path transform="translate(209.464518,257.738740)" stroke="#191919" d="M.0,.0L27.6,.0" id="shape9" stroke-width="1" fill="none"/><g transform="translate(197.763731,244.238740)" id="shape10"><text xml:space="preserve" style="fill:#191919;font-family:Arial,PingFang SC,Mircrosoft YaHei,Arial;font-size:16px"><tspan x="50.2" y="20.0" textLength="19.6">A1</tspan></text></g><g transform="translate(109.464518,341.124567)" id="shape11"><path stroke="#101843" d="M100.0,60.0L100.0,.0L.0,.0L.0,60.0L100.0,60.0z" stroke-width="1" fill-rule="nonzero" fill="#ffffff"/><text xml:space="preserve" style="fill:#191919;font-family:Arial,PingFang SC,Mircrosoft YaHei,Arial;font-size:16px"><tspan x="40.2" y="36.5" textLength="19.6">X2</tspan></text></g><path transform="translate(159.464518,287.738740)" stroke="#191919" d="M.0,.0L.0,53.4" id="shape12" stroke-width="1" fill="none"/><path transform="translate(159.464518,341.124567)" stroke="#191919" d="M.0,.0L.0,-27.6L63.4,-27.6" id="shape13" stroke-width="1" fill="none"/><g transform="translate(191.747983,302.226929)" id="shape14"><text xml:space="preserve" style="fill:#191919;font-family:Arial,PingFang SC,Mircrosoft YaHei,Arial;font-size:16px"><tspan x="37.3" y="20.0" textLength="45.3">A1*B0</tspan></text></g><path transform="translate(209.464518,371.124567)" stroke="#191919" d="M.0,.0L27.6,.0" id="shape15" stroke-width="1" fill="none"/><g transform="translate(237.023573,357.624567)" id="shape16"><text xml:space="preserve" style="fill:#191919;font-family:Arial,PingFang SC,Mircrosoft YaHei,Arial;font-size:16px"><tspan x="17.4" y="20.0" textLength="85.2">B+ | Temp.1</tspan></text></g><g transform="translate(109.464518,454.510394)" id="shape17"><path stroke="#101843" d="M100.0,60.0L100.0,.0L.0,.0L.0,60.0L100.0,60.0z" stroke-width="1" fill-rule="nonzero" fill="#ffffff"/><text xml:space="preserve" style="fill:#191919;font-family:Arial,PingFang SC,Mircrosoft YaHei,Arial;font-size:16px"><tspan x="40.2" y="36.5" textLength="19.6">X3</tspan></text></g><g transform="translate(159.464518,401.124567)" id="shape18"><path stroke="#191919" d="M.0,.0L-0.0,53.4" stroke-width="1" fill="none"/><rect x="8.6" y="14.7" height="19.0" width="124.7" fill="#ffffff"/><text xml:space="preserve" style="fill:#191919;font-family:Arial,PingFang SC,Mircrosoft YaHei,Arial;font-size:16px"><tspan x="8.6" y="30.7" textLength="124.7">B0* Temp.1 T#5S</tspan></text></g><path transform="translate(209.464518,484.510394)" stroke="#191919" d="M.0,.0L32.3,.0" id="shape19" stroke-width="1" fill="none"/><g transform="translate(197.763731,471.010394)" id="shape20"><text xml:space="preserve" style="fill:#191919;font-family:Arial,PingFang SC,Mircrosoft YaHei,Arial;font-size:16px"><tspan x="49.5" y="20.0" textLength="20.9">C+</tspan></text></g><g transform="translate(109.464518,572.384409)" id="shape21"><path stroke="#101843" d="M100.0,60.0L100.0,.0L.0,.0L.0,60.0L100.0,60.0z" stroke-width="1" fill-rule="nonzero" fill="#ffffff"/><text xml:space="preserve" style="fill:#191919;font-family:Arial,PingFang SC,Mircrosoft YaHei,Arial;font-size:16px"><tspan x="40.2" y="36.5" textLength="19.6">X4</tspan></text></g><path transform="translate(159.464518,514.510394)" stroke="#191919" d="M.0,.0L.0,57.9" id="shape22" stroke-width="1" fill="none"/><path transform="translate(209.464518,602.384409)" stroke="#191919" d="M.0,.0L32.3,.0" id="shape23" stroke-width="1" fill="none"/><g transform="translate(197.763731,588.884409)" id="shape24"><text xml:space="preserve" style="fill:#191919;font-family:Arial,PingFang SC,Mircrosoft YaHei,Arial;font-size:16px"><tspan x="51.6" y="20.0" textLength="16.9">C-</tspan></text></g><g transform="translate(121.747983,521.759902)" id="shape25"><text xml:space="preserve" style="fill:#191919;font-family:Arial,PingFang SC,Mircrosoft YaHei,Arial;font-size:16px"><tspan x="49.8" y="20.0" textLength="20.4">C1</tspan></text></g><g transform="translate(238.440896,588.884409)" id="shape26"><text xml:space="preserve" style="fill:#191919;font-family:Arial,PingFang SC,Mircrosoft YaHei,Arial;font-size:16px"><tspan x="52.0" y="20.0" textLength="16.0">A-</tspan></text></g><path transform="translate(159.464518,632.384409)" stroke="#191919" d="M.0,.0L.0,27.1L-79.0,27.1L-79.0,-549.9L.0,-549.9L.0,-521.3" id="shape27" stroke-width="1" fill="none"/><g transform="translate(99.464518,664.474961)" id="shape28"><text xml:space="preserve" style="fill:#191919;font-family:Arial,PingFang SC,Mircrosoft YaHei,Arial;font-size:16px"><tspan x="37.3" y="20.0" textLength="45.3">A0*B0</tspan></text></g><g transform="translate(620.992126,69.181102)" id="shape29"><path stroke="#323232" d="M.0,.0L75.6,.0L75.6,75.6L.0,75.6L.0,.0z" stroke-width="1" fill-rule="nonzero" fill="#ffffff"/><text xml:space="preserve" style="fill:#191919;font-family:Arial,PingFang SC,Mircrosoft YaHei,Arial;font-size:16px"><tspan x="28.0" y="44.5" textLength="19.6">X0</tspan></text></g><g transform="translate(460.362205,133.440945)" id="shape30"><path stroke="#191919" d="M.0,.0L154.3,-0.0" stroke-width="1" fill="none"/><path stroke-linecap="round" stroke="#191919" d="M154.3,-3.0L160.3,-0.0L154.3,3.0L154.3,-3.0" stroke-width="1" fill="#191919"/><rect x="6.4" y="-9.5" height="19.0" width="20.4" fill="#ffffff"/><text xml:space="preserve" style="fill:#191919;font-family:Arial,PingFang SC,Mircrosoft YaHei,Arial;font-size:16px"><tspan x="6.4" y="6.5" textLength="20.4">FS</tspan></text></g><g transform="translate(465.086614,182.566929)" id="shape31"><path stroke="#191919" d="M.0,.0L132.9,.0L132.9,-43.1" stroke-width="1" fill="none"/><path stroke-linecap="round" stroke="#191919" d="M129.9,-43.1L132.9,-49.1L135.9,-43.1L129.9,-43.1" stroke-width="1" fill="#191919"/><rect x="48.1" y="-9.5" height="19.0" width="19.6" fill="#ffffff"/><text xml:space="preserve" style="fill:#191919;font-family:Arial,PingFang SC,Mircrosoft YaHei,Arial;font-size:16px"><tspan x="48.1" y="6.5" textLength="19.6">A0</tspan></text><rect x="78.1" y="-9.5" height="19.0" width="19.6" fill="#ffffff"/><text xml:space="preserve" style="fill:#191919;font-family:Arial,PingFang SC,Mircrosoft YaHei,Arial;font-size:16px"><tspan x="78.1" y="6.5" textLength="19.6">B0</tspan></text><rect x="2.1" y="-9.5" height="19.0" width="19.6" fill="#ffffff"/><text xml:space="preserve" style="fill:#191919;font-family:Arial,PingFang SC,Mircrosoft YaHei,Arial;font-size:16px"><tspan x="2.1" y="6.5" textLength="19.6">X4</tspan></text></g><g transform="translate(469.811024,88.078740)" id="shape32"><path stroke="#191919" d="M.0,.0L145.2,.0" stroke-width="1" fill="none"/><path stroke-linecap="round" stroke="#191919" d="M145.2,-3.0L151.2,.0L145.2,3.0L145.2,-3.0" stroke-width="1" fill="#191919"/><rect x="9.3" y="-9.5" height="19.0" width="19.6" fill="#ffffff"/><text xml:space="preserve" style="fill:#191919;font-family:Arial,PingFang SC,Mircrosoft YaHei,Arial;font-size:16px"><tspan x="9.3" y="6.5" textLength="19.6">X1</tspan></text></g><g transform="translate(622.787304,226.943440)" id="shape33"><path stroke="#323232" d="M.0,.0L75.6,.0L75.6,75.6L.0,75.6L.0,.0z" stroke-width="1" fill-rule="nonzero" fill="#ffffff"/><text xml:space="preserve" style="fill:#191919;font-family:Arial,PingFang SC,Mircrosoft YaHei,Arial;font-size:16px"><tspan x="28.0" y="44.5" textLength="19.6">X1</tspan></text></g><g transform="translate(414.913337,294.973468)" id="shape34"><path stroke="#191919" d="M.0,.0L201.6,.0" stroke-width="1" fill="none"/><path stroke-linecap="round" stroke="#191919" d="M201.6,-3.0L207.6,.0L201.6,3.0L201.6,-3.0" stroke-width="1" fill="#191919"/><rect x="39.0" y="-9.5" height="19.0" width="19.6" fill="#ffffff"/><text xml:space="preserve" style="fill:#191919;font-family:Arial,PingFang SC,Mircrosoft YaHei,Arial;font-size:16px"><tspan x="39.0" y="6.5" textLength="19.6">A0</tspan></text><rect x="69.0" y="-9.5" height="19.0" width="19.6" fill="#ffffff"/><text xml:space="preserve" style="fill:#191919;font-family:Arial,PingFang SC,Mircrosoft YaHei,Arial;font-size:16px"><tspan x="69.0" y="6.5" textLength="19.6">B0</tspan></text><rect x="99.6" y="-9.5" height="19.0" width="20.4" fill="#ffffff"/><text xml:space="preserve" style="fill:#191919;font-family:Arial,PingFang SC,Mircrosoft YaHei,Arial;font-size:16px"><tspan x="99.6" y="6.5" textLength="20.4">C0</tspan></text><rect x="135.2" y="-9.5" height="19.0" width="53.3" fill="#ffffff"/><text xml:space="preserve" style="fill:#191919;font-family:Arial,PingFang SC,Mircrosoft YaHei,Arial;font-size:16px"><tspan x="135.2" y="6.5" textLength="53.3">Marcha</tspan></text><rect x="0.0" y="-9.5" height="19.0" width="19.6" fill="#ffffff"/><text xml:space="preserve" style="fill:#191919;font-family:Arial,PingFang SC,Mircrosoft YaHei,Arial;font-size:16px"><tspan x="0.0" y="6.5" textLength="19.6">X0</tspan></text></g><g transform="translate(471.606604,245.840940)" id="shape35"><path stroke="#191919" d="M.0,.0L145.2,.0" stroke-width="1" fill="none"/><path stroke-linecap="round" stroke="#191919" d="M145.2,-3.0L151.2,.0L145.2,3.0L145.2,-3.0" stroke-width="1" fill="#191919"/><rect x="9.3" y="-9.5" height="19.0" width="19.6" fill="#ffffff"/><text xml:space="preserve" style="fill:#191919;font-family:Arial,PingFang SC,Mircrosoft YaHei,Arial;font-size:16px"><tspan x="9.3" y="6.5" textLength="19.6">X2</tspan></text></g><g transform="translate(620.992077,341.124567)" id="shape36"><path stroke="#323232" d="M.0,.0L75.6,.0L75.6,75.6L.0,75.6L.0,.0z" stroke-width="1" fill-rule="nonzero" fill="#ffffff"/><text xml:space="preserve" style="fill:#191919;font-family:Arial,PingFang SC,Mircrosoft YaHei,Arial;font-size:16px"><tspan x="28.0" y="44.5" textLength="19.6">X2</tspan></text></g><g transform="translate(474.535433,406.829428)" id="shape37"><path stroke="#191919" d="M.0,.0L140.1,.0" stroke-width="1" fill="none"/><path stroke-linecap="round" stroke="#191919" d="M140.1,-3.0L146.1,.0L140.1,3.0L140.1,-3.0" stroke-width="1" fill="#191919"/><rect x="47.6" y="-9.5" height="19.0" width="19.6" fill="#ffffff"/><text xml:space="preserve" style="fill:#191919;font-family:Arial,PingFang SC,Mircrosoft YaHei,Arial;font-size:16px"><tspan x="47.6" y="6.5" textLength="19.6">A1</tspan></text><rect x="81.6" y="-9.5" height="19.0" width="19.6" fill="#ffffff"/><text xml:space="preserve" style="fill:#191919;font-family:Arial,PingFang SC,Mircrosoft YaHei,Arial;font-size:16px"><tspan x="81.6" y="6.5" textLength="19.6">B0</tspan></text><rect x="10.6" y="-9.5" height="19.0" width="19.6" fill="#ffffff"/><text xml:space="preserve" style="fill:#191919;font-family:Arial,PingFang SC,Mircrosoft YaHei,Arial;font-size:16px"><tspan x="10.6" y="6.5" textLength="19.6">X1</tspan></text></g><g transform="translate(469.811377,360.021867)" id="shape38"><path stroke="#191919" d="M.0,.0L145.2,.0" stroke-width="1" fill="none"/><path stroke-linecap="round" stroke="#191919" d="M145.2,-3.0L151.2,.0L145.2,3.0L145.2,-3.0" stroke-width="1" fill="#191919"/><rect x="9.3" y="-9.5" height="19.0" width="19.6" fill="#ffffff"/><text xml:space="preserve" style="fill:#191919;font-family:Arial,PingFang SC,Mircrosoft YaHei,Arial;font-size:16px"><tspan x="9.3" y="6.5" textLength="19.6">X3</tspan></text></g><g transform="translate(961.401172,357.624567)" id="shape39"><path stroke="#323232" d="M.0,.0L75.6,.0L75.6,75.6L.0,75.6L.0,.0z" stroke-width="1" fill-rule="nonzero" fill="#ffffff"/><text xml:space="preserve" style="fill:#191919;font-family:Arial,PingFang SC,Mircrosoft YaHei,Arial;font-size:16px"><tspan x="28.0" y="44.5" textLength="19.6">X3</tspan></text></g><g transform="translate(811.015606,423.329428)" id="shape40"><path stroke="#191919" d="M.0,.0L144.4,.0" stroke-width="1" fill="none"/><path stroke-linecap="round" stroke="#191919" d="M144.4,-3.0L150.4,.0L144.4,3.0L144.4,-3.0" stroke-width="1" fill="#191919"/><rect x="64.5" y="-9.5" height="19.0" width="19.6" fill="#ffffff"/><text xml:space="preserve" style="fill:#191919;font-family:Arial,PingFang SC,Mircrosoft YaHei,Arial;font-size:16px"><tspan x="64.5" y="6.5" textLength="19.6">B0</tspan></text><rect x="101.9" y="-9.5" height="19.0" width="16.9" fill="#ffffff"/><text xml:space="preserve" style="fill:#191919;font-family:Arial,PingFang SC,Mircrosoft YaHei,Arial;font-size:16px"><tspan x="101.9" y="6.5" textLength="16.9">5s</tspan></text><rect x="4.5" y="-9.5" height="19.0" width="19.6" fill="#ffffff"/><text xml:space="preserve" style="fill:#191919;font-family:Arial,PingFang SC,Mircrosoft YaHei,Arial;font-size:16px"><tspan x="4.5" y="6.5" textLength="19.6">X2</tspan></text></g><g transform="translate(810.220472,376.521867)" id="shape41"><path stroke="#191919" d="M.0,.0L145.2,.0" stroke-width="1" fill="none"/><path stroke-linecap="round" stroke="#191919" d="M145.2,-3.0L151.2,.0L145.2,3.0L145.2,-3.0" stroke-width="1" fill="#191919"/><rect x="9.3" y="-9.5" height="19.0" width="19.6" fill="#ffffff"/><text xml:space="preserve" style="fill:#191919;font-family:Arial,PingFang SC,Mircrosoft YaHei,Arial;font-size:16px"><tspan x="9.3" y="6.5" textLength="19.6">X4</tspan></text></g><g transform="translate(962.464518,75.590502)" id="shape42"><path stroke="#323232" d="M.0,.0L75.6,.0L75.6,75.6L.0,75.6L.0,.0z" stroke-width="1" fill-rule="nonzero" fill="#ffffff"/><text xml:space="preserve" style="fill:#191919;font-family:Arial,PingFang SC,Mircrosoft YaHei,Arial;font-size:16px"><tspan x="28.0" y="44.5" textLength="19.6">X4</tspan></text></g><g transform="translate(812.078818,141.295802)" id="shape43"><path stroke="#191919" d="M.0,.0L144.4,.0" stroke-width="1" fill="none"/><path stroke-linecap="round" stroke="#191919" d="M144.4,-3.0L150.4,.0L144.4,3.0L144.4,-3.0" stroke-width="1" fill="#191919"/><rect x="52.1" y="-9.5" height="19.0" width="20.4" fill="#ffffff"/><text xml:space="preserve" style="fill:#191919;font-family:Arial,PingFang SC,Mircrosoft YaHei,Arial;font-size:16px"><tspan x="52.1" y="6.5" textLength="20.4">C1</tspan></text><rect x="19.5" y="-9.5" height="19.0" width="19.6" fill="#ffffff"/><text xml:space="preserve" style="fill:#191919;font-family:Arial,PingFang SC,Mircrosoft YaHei,Arial;font-size:16px"><tspan x="19.5" y="6.5" textLength="19.6">X3</tspan></text></g><g transform="translate(811.283818,94.487802)" id="shape44"><path stroke="#191919" d="M.0,.0L145.2,.0" stroke-width="1" fill="none"/><path stroke-linecap="round" stroke="#191919" d="M145.2,-3.0L151.2,.0L145.2,3.0L145.2,-3.0" stroke-width="1" fill="#191919"/><rect x="9.3" y="-9.5" height="19.0" width="19.6" fill="#ffffff"/><text xml:space="preserve" style="fill:#191919;font-family:Arial,PingFang SC,Mircrosoft YaHei,Arial;font-size:16px"><tspan x="9.3" y="6.5" textLength="19.6">X0</tspan></text></g><path transform="translate(947.728298,200.250551)" stroke="#101843" d="M100.0,129.0L100.0,.0L.0,.0L.0,129.0L100.0,129.0z" id="shape45" stroke-width="1" fill-rule="nonzero" fill="#ffffff"/><g transform="translate(896.657480,207.817480)" id="shape46"><text xml:space="preserve" style="fill:#191919;font-family:Arial,PingFang SC,Mircrosoft YaHei,Arial;font-size:16px"><tspan x="53.8" y="20.0" textLength="12.4">in</tspan></text></g><g transform="translate(896.657480,295.817480)" id="shape47"><text xml:space="preserve" style="fill:#191919;font-family:Arial,PingFang SC,Mircrosoft YaHei,Arial;font-size:16px"><tspan x="50.7" y="20.0" textLength="18.7">Pv</tspan></text></g><g transform="translate(975.547244,208.284567)" id="shape48"><text xml:space="preserve" style="fill:#191919;font-family:Arial,PingFang SC,Mircrosoft YaHei,Arial;font-size:16px"><tspan x="53.8" y="20.0" textLength="12.4">Q</tspan></text></g><g transform="translate(975.547244,295.817480)" id="shape49"><text xml:space="preserve" style="fill:#191919;font-family:Arial,PingFang SC,Mircrosoft YaHei,Arial;font-size:16px"><tspan x="52.4" y="20.0" textLength="15.1">Et</tspan></text></g><g transform="translate(824.893701,215.841102)" id="shape50"><path stroke="#191919" d="M.0,.0L116.5,.0" stroke-width="1" fill="none"/><path stroke-linecap="round" stroke="#191919" d="M116.5,-3.0L122.5,.0L116.5,3.0L116.5,-3.0" stroke-width="1" fill="#191919"/><rect x="39.0" y="-9.5" height="19.0" width="19.6" fill="#ffffff"/><text xml:space="preserve" style="fill:#191919;font-family:Arial,PingFang SC,Mircrosoft YaHei,Arial;font-size:16px"><tspan x="39.0" y="6.5" textLength="19.6">X3</tspan></text></g><g transform="translate(824.893701,310.329291)" id="shape51"><path stroke="#191919" d="M.0,.0L116.5,.0" stroke-width="1" fill="none"/><path stroke-linecap="round" stroke="#191919" d="M116.5,-3.0L122.5,.0L116.5,3.0L116.5,-3.0" stroke-width="1" fill="#191919"/><rect x="26.0" y="-9.5" height="19.0" width="35.5" fill="#ffffff"/><text xml:space="preserve" style="fill:#191919;font-family:Arial,PingFang SC,Mircrosoft YaHei,Arial;font-size:16px"><tspan x="26.0" y="6.5" textLength="35.5">T#5s</tspan></text></g><g transform="translate(937.728298,173.250551)" id="shape52"><text xml:space="preserve" style="fill:#191919;font-family:Arial,PingFang SC,Mircrosoft YaHei,Arial;font-size:16px"><tspan x="33.8" y="20.0" textLength="52.4">Temp.1</tspan></text></g><path transform="translate(629.401953,642.156143)" stroke="#191919" d="M.0,.0L34.8,.0" id="shape53" stroke-width="6.666669845581055" fill="none"/><path transform="matrix(0.000000,1.000000,-1.000000,0.000000,675.772068,624.853053)" stroke="#191919" d="M.0,.0C6.1,15.2,24.4,15.2,30.5,.0" id="shape54" stroke-width="4" fill="none"/><path transform="matrix(0.000000,-1.000000,1.000000,0.000000,690.540485,655.306643)" stroke="#191919" d="M.0,.0C6.1,15.2,24.4,15.2,30.5,.0" id="shape55" stroke-width="4" fill="none"/><g transform="translate(625.850345,597.351477)" id="shape56"><text xml:space="preserve" style="fill:#191919;font-family:Arial,PingFang SC,Mircrosoft YaHei,Arial;font-size:16px"><tspan x="50.0" y="20.0" textLength="20.0">A+</tspan></text></g><path transform="translate(629.401345,718.779217)" stroke="#191919" d="M.0,.0L34.8,.0" id="shape57" stroke-width="6.666669845581055" fill="none"/><path transform="matrix(0.000000,1.000000,-1.000000,0.000000,675.770345,701.476217)" stroke="#191919" d="M.0,.0C6.1,15.2,24.4,15.2,30.5,.0" id="shape58" stroke-width="4" fill="none"/><path transform="matrix(0.000000,-1.000000,1.000000,0.000000,690.540345,731.930217)" stroke="#191919" d="M.0,.0C6.1,15.2,24.4,15.2,30.5,.0" id="shape59" stroke-width="4" fill="none"/><g transform="translate(625.850345,677.020769)" id="shape60"><text xml:space="preserve" style="fill:#191919;font-family:Arial,PingFang SC,Mircrosoft YaHei,Arial;font-size:16px"><tspan x="50.0" y="20.0" textLength="20.0">B+</tspan></text></g><path transform="translate(628.401345,578.110502)" stroke="#191919" d="M.0,.0L34.8,.0" id="shape61" stroke-width="6.666669845581055" fill="none"/><path transform="matrix(0.000000,1.000000,-1.000000,0.000000,674.770345,560.807502)" stroke="#191919" d="M.0,.0C6.1,15.2,24.4,15.2,30.5,.0" id="shape62" stroke-width="4" fill="none"/><path transform="matrix(0.000000,-1.000000,1.000000,0.000000,689.540345,591.261502)" stroke="#191919" d="M.0,.0C6.1,15.2,24.4,15.2,30.5,.0" id="shape63" stroke-width="4" fill="none"/><g transform="translate(624.850345,536.352502)" id="shape64"><text xml:space="preserve" style="fill:#191919;font-family:Arial,PingFang SC,Mircrosoft YaHei,Arial;font-size:16px"><tspan x="49.5" y="20.0" textLength="20.9">C+</tspan></text></g><path transform="translate(801.527329,639.109477)" stroke="#191919" d="M.0,.0L34.8,.0" id="shape65" stroke-width="6.666669845581055" fill="none"/><path transform="matrix(0.000000,1.000000,-1.000000,0.000000,847.896329,621.806477)" stroke="#191919" d="M.0,.0C6.1,15.2,24.4,15.2,30.5,.0" id="shape66" stroke-width="4" fill="none"/><path transform="matrix(0.000000,-1.000000,1.000000,0.000000,862.666329,652.260477)" stroke="#191919" d="M.0,.0C6.1,15.2,24.4,15.2,30.5,.0" id="shape67" stroke-width="4" fill="none"/><g transform="translate(797.976329,597.351477)" id="shape68"><text xml:space="preserve" style="fill:#191919;font-family:Arial,PingFang SC,Mircrosoft YaHei,Arial;font-size:16px"><tspan x="52.0" y="20.0" textLength="16.0">A-</tspan></text></g><path transform="translate(801.527329,719.186617)" stroke="#191919" d="M.0,.0L34.8,.0" id="shape69" stroke-width="6.666669845581055" fill="none"/><path transform="matrix(0.000000,1.000000,-1.000000,0.000000,847.896329,701.883617)" stroke="#191919" d="M.0,.0C6.1,15.2,24.4,15.2,30.5,.0" id="shape70" stroke-width="4" fill="none"/><path transform="matrix(0.000000,-1.000000,1.000000,0.000000,862.666329,732.337617)" stroke="#191919" d="M.0,.0C6.1,15.2,24.4,15.2,30.5,.0" id="shape71" stroke-width="4" fill="none"/><g transform="translate(797.976329,677.428617)" id="shape72"><text xml:space="preserve" style="fill:#191919;font-family:Arial,PingFang SC,Mircrosoft YaHei,Arial;font-size:16px"><tspan x="51.6" y="20.0" textLength="16.9">C-</tspan></text></g><g transform="translate(541.850345,628.351477)" id="shape73"><text xml:space="preserve" style="fill:#191919;font-family:Arial,PingFang SC,Mircrosoft YaHei,Arial;font-size:16px"><tspan x="50.2" y="20.0" textLength="19.6">X1</tspan></text></g><g transform="translate(540.850345,703.351477)" id="shape74"><text xml:space="preserve" style="fill:#191919;font-family:Arial,PingFang SC,Mircrosoft YaHei,Arial;font-size:16px"><tspan x="50.2" y="20.0" textLength="19.6">X2</tspan></text></g><g transform="translate(540.850345,570.351477)" id="shape75"><text xml:space="preserve" style="fill:#191919;font-family:Arial,PingFang SC,Mircrosoft YaHei,Arial;font-size:16px"><tspan x="50.2" y="20.0" textLength="19.6">X3</tspan></text></g><g transform="translate(707.976329,627.758877)" id="shape76"><text xml:space="preserve" style="fill:#191919;font-family:Arial,PingFang SC,Mircrosoft YaHei,Arial;font-size:16px"><tspan x="50.2" y="20.0" textLength="19.6">X4</tspan></text></g><g transform="translate(711.976329,705.758877)" id="shape77"><text xml:space="preserve" style="fill:#191919;font-family:Arial,PingFang SC,Mircrosoft YaHei,Arial;font-size:16px"><tspan x="50.2" y="20.0" textLength="19.6">X4</tspan></text></g></g></svg>