<svg xmlns="http://www.w3.org/2000/svg" version="1.1" height="151px" width="251px" viewBox="-10 -10 271 171" content="&lt;mxGraphModel dx=&quot;1180&quot; dy=&quot;1142&quot; grid=&quot;1&quot; gridSize=&quot;10&quot; guides=&quot;1&quot; tooltips=&quot;1&quot; connect=&quot;1&quot; arrows=&quot;1&quot; fold=&quot;1&quot; page=&quot;0&quot; pageScale=&quot;1&quot; pageWidth=&quot;827&quot; pageHeight=&quot;1169&quot; math=&quot;0&quot; shadow=&quot;0&quot;&gt;&lt;root&gt;&lt;mxCell id=&quot;0&quot;/&gt;&lt;mxCell id=&quot;1&quot; parent=&quot;0&quot;/&gt;&lt;mxCell id=&quot;2&quot; value=&quot;&quot; style=&quot;pointerEvents=1;verticalLabelPosition=bottom;shadow=0;dashed=0;align=center;html=1;verticalAlign=top;shape=mxgraph.electrical.resistors.resistor_2;&quot; vertex=&quot;1&quot; parent=&quot;1&quot;&gt;&lt;mxGeometry x=&quot;120&quot; y=&quot;-50&quot; width=&quot;100&quot; height=&quot;20&quot; as=&quot;geometry&quot;/&gt;&lt;/mxCell&gt;&lt;mxCell id=&quot;3&quot; value=&quot;&quot; style=&quot;pointerEvents=1;verticalLabelPosition=bottom;shadow=0;dashed=0;align=center;html=1;verticalAlign=top;shape=mxgraph.electrical.resistors.resistor_2;rotation=90;&quot; vertex=&quot;1&quot; parent=&quot;1&quot;&gt;&lt;mxGeometry x=&quot;190&quot; y=&quot;40&quot; width=&quot;100&quot; height=&quot;20&quot; as=&quot;geometry&quot;/&gt;&lt;/mxCell&gt;&lt;mxCell id=&quot;4&quot; value=&quot;&quot; style=&quot;pointerEvents=1;verticalLabelPosition=bottom;shadow=0;dashed=0;align=center;html=1;verticalAlign=top;shape=mxgraph.electrical.resistors.resistor_2;&quot; vertex=&quot;1&quot; parent=&quot;1&quot;&gt;&lt;mxGeometry x=&quot;270&quot; y=&quot;-50&quot; width=&quot;100&quot; height=&quot;20&quot; as=&quot;geometry&quot;/&gt;&lt;/mxCell&gt;&lt;/root&gt;&lt;/mxGraphModel&gt;"><style type="text/css"></style><path d="M 0.5 10.5 L 18.5 10.5 L 22.5 0.5 L 30.5 20.5 L 38.5 0.5 L 46.5 20.5 L 54.5 0.5 L 62.5 20.5 L 70.5 0.5 L 78.5 20.5 L 82.5 10.5 L 100.5 10.5" fill="none" stroke="rgb(0, 0, 0)" stroke-miterlimit="10" pointer-events="none"/><path d="M 70.5 100.5 L 88.5 100.5 L 92.5 90.5 L 100.5 110.5 L 108.5 90.5 L 116.5 110.5 L 124.5 90.5 L 132.5 110.5 L 140.5 90.5 L 148.5 110.5 L 152.5 100.5 L 170.5 100.5" fill="none" stroke="rgb(0, 0, 0)" stroke-miterlimit="10" transform="rotate(90,120.5,100.5)" pointer-events="none"/><path d="M 150.5 10.5 L 168.5 10.5 L 172.5 0.5 L 180.5 20.5 L 188.5 0.5 L 196.5 20.5 L 204.5 0.5 L 212.5 20.5 L 220.5 0.5 L 228.5 20.5 L 232.5 10.5 L 250.5 10.5" fill="none" stroke="rgb(0, 0, 0)" stroke-miterlimit="10" pointer-events="none"/></svg>