<svg xmlns="http://www.w3.org/2000/svg" version="1.1" height="221px" width="311px" viewBox="-10 -10 331 241" content="&lt;mxGraphModel dx=&quot;1221&quot; dy=&quot;1142&quot; grid=&quot;1&quot; gridSize=&quot;10&quot; guides=&quot;1&quot; tooltips=&quot;1&quot; connect=&quot;1&quot; arrows=&quot;1&quot; fold=&quot;1&quot; page=&quot;0&quot; pageScale=&quot;1&quot; pageWidth=&quot;827&quot; pageHeight=&quot;1169&quot; math=&quot;0&quot; shadow=&quot;0&quot;&gt;&lt;root&gt;&lt;mxCell id=&quot;0&quot;/&gt;&lt;mxCell id=&quot;1&quot; parent=&quot;0&quot;/&gt;&lt;mxCell id=&quot;2&quot; value=&quot;&quot; style=&quot;pointerEvents=1;verticalLabelPosition=bottom;shadow=0;dashed=0;align=center;html=1;verticalAlign=top;shape=mxgraph.electrical.resistors.resistor_2;&quot; vertex=&quot;1&quot; parent=&quot;1&quot;&gt;&lt;mxGeometry x=&quot;-120&quot; y=&quot;-10&quot; width=&quot;100&quot; height=&quot;20&quot; as=&quot;geometry&quot;/&gt;&lt;/mxCell&gt;&lt;mxCell id=&quot;3&quot; value=&quot;&quot; style=&quot;pointerEvents=1;verticalLabelPosition=bottom;shadow=0;dashed=0;align=center;html=1;verticalAlign=top;shape=mxgraph.electrical.resistors.resistor_2;&quot; vertex=&quot;1&quot; parent=&quot;1&quot;&gt;&lt;mxGeometry x=&quot;-120&quot; y=&quot;30&quot; width=&quot;100&quot; height=&quot;20&quot; as=&quot;geometry&quot;/&gt;&lt;/mxCell&gt;&lt;mxCell id=&quot;4&quot; value=&quot;&quot; style=&quot;pointerEvents=1;verticalLabelPosition=bottom;shadow=0;dashed=0;align=center;html=1;verticalAlign=top;shape=mxgraph.electrical.resistors.resistor_2;&quot; vertex=&quot;1&quot; parent=&quot;1&quot;&gt;&lt;mxGeometry x=&quot;50&quot; y=&quot;-10&quot; width=&quot;100&quot; height=&quot;20&quot; as=&quot;geometry&quot;/&gt;&lt;/mxCell&gt;&lt;mxCell id=&quot;5&quot; value=&quot;&quot; style=&quot;pointerEvents=1;verticalLabelPosition=bottom;shadow=0;dashed=0;align=center;html=1;verticalAlign=top;shape=mxgraph.electrical.resistors.resistor_2;&quot; vertex=&quot;1&quot; parent=&quot;1&quot;&gt;&lt;mxGeometry x=&quot;-130&quot; y=&quot;190&quot; width=&quot;100&quot; height=&quot;20&quot; as=&quot;geometry&quot;/&gt;&lt;/mxCell&gt;&lt;mxCell id=&quot;6&quot; value=&quot;&quot; style=&quot;pointerEvents=1;verticalLabelPosition=bottom;shadow=0;dashed=0;align=center;html=1;verticalAlign=top;shape=mxgraph.electrical.resistors.resistor_2;rotation=90;&quot; vertex=&quot;1&quot; parent=&quot;1&quot;&gt;&lt;mxGeometry x=&quot;-200&quot; y=&quot;100&quot; width=&quot;100&quot; height=&quot;20&quot; as=&quot;geometry&quot;/&gt;&lt;/mxCell&gt;&lt;/root&gt;&lt;/mxGraphModel&gt;"><style type="text/css"></style><path d="M 40.5 10.5 L 58.5 10.5 L 62.5 0.5 L 70.5 20.5 L 78.5 0.5 L 86.5 20.5 L 94.5 0.5 L 102.5 20.5 L 110.5 0.5 L 118.5 20.5 L 122.5 10.5 L 140.5 10.5" fill="none" stroke="rgb(0, 0, 0)" stroke-miterlimit="10" pointer-events="none"/><path d="M 40.5 50.5 L 58.5 50.5 L 62.5 40.5 L 70.5 60.5 L 78.5 40.5 L 86.5 60.5 L 94.5 40.5 L 102.5 60.5 L 110.5 40.5 L 118.5 60.5 L 122.5 50.5 L 140.5 50.5" fill="none" stroke="rgb(0, 0, 0)" stroke-miterlimit="10" pointer-events="none"/><path d="M 210.5 10.5 L 228.5 10.5 L 232.5 0.5 L 240.5 20.5 L 248.5 0.5 L 256.5 20.5 L 264.5 0.5 L 272.5 20.5 L 280.5 0.5 L 288.5 20.5 L 292.5 10.5 L 310.5 10.5" fill="none" stroke="rgb(0, 0, 0)" stroke-miterlimit="10" pointer-events="none"/><path d="M 30.5 210.5 L 48.5 210.5 L 52.5 200.5 L 60.5 220.5 L 68.5 200.5 L 76.5 220.5 L 84.5 200.5 L 92.5 220.5 L 100.5 200.5 L 108.5 220.5 L 112.5 210.5 L 130.5 210.5" fill="none" stroke="rgb(0, 0, 0)" stroke-miterlimit="10" pointer-events="none"/><path d="M -39.5 120.5 L -21.5 120.5 L -17.5 110.5 L -9.5 130.5 L -1.5 110.5 L 6.5 130.5 L 14.5 110.5 L 22.5 130.5 L 30.5 110.5 L 38.5 130.5 L 42.5 120.5 L 60.5 120.5" fill="none" stroke="rgb(0, 0, 0)" stroke-miterlimit="10" transform="rotate(90,10.5,120.5)" pointer-events="none"/></svg>